<?xml version="1.0" encoding="UTF-8" standalone="no"?> <svg xmlns="http://www.w3.org/2000/svg" viewBox="0 0 64 56.32"><defs><style>.cls-1{fill:#35353d;}</style></defs><title>Asset 36</title><g id="Layer_2" data-name="Layer 2"><g id="Layer_1-2" data-name="Layer 1"><path class="cls-1" d="M63.22,22.34a2.57,2.57,0,0,0-3.62.06l-3.39,3.52a28.13,28.13,0,1,0-7.94,21.95,2.56,2.56,0,0,0-3.66-3.58,23,23,0,1,1,6.47-18.45l-3.19-3.19a2.56,2.56,0,1,0-3.62,3.62L52,34a2.56,2.56,0,0,0,1.81.75h0a2.56,2.56,0,0,0,1.82-.79L63.28,26A2.57,2.57,0,0,0,63.22,22.34Z"/></g></g></svg>